<?xml version="1.0" standalone="no"?>
<!DOCTYPE svg PUBLIC "-//W3C//DTD SVG 20010904//EN"
 "http://www.w3.org/TR/2001/REC-SVG-20010904/DTD/svg10.dtd">
<svg version="1.0" xmlns="http://www.w3.org/2000/svg"
 width="700.000000pt" height="700.000000pt" viewBox="0 0 700.000000 700.000000"
 preserveAspectRatio="xMidYMid meet">
<metadata>
Created by potrace 1.11, written by Peter Selinger 2001-2013
</metadata>
<g transform="translate(0.000000,700.000000) scale(0.100000,-0.100000)"
fill="#000000" stroke="none">
<path d="M3258 6495 c-3 -3 -18 -8 -33 -11 -31 -5 -118 -53 -124 -67 -2 -5
-11 -17 -20 -27 -25 -26 -51 -79 -51 -104 0 -12 -14 -48 -30 -80 -17 -33 -29
-65 -26 -72 3 -7 -5 -16 -17 -20 -11 -4 -53 -31 -92 -60 -40 -30 -90 -58 -118
-65 -26 -7 -47 -17 -47 -21 0 -4 -7 -8 -15 -8 -8 0 -15 -5 -15 -10 0 -6 -20
-19 -45 -30 -27 -12 -50 -29 -57 -45 -12 -27 -93 -91 -140 -112 -16 -7 -28
-18 -28 -25 0 -7 -11 -30 -25 -50 -14 -21 -28 -51 -32 -69 -3 -18 -14 -34 -27
-39 -33 -12 -57 -45 -67 -90 -11 -48 -52 -112 -99 -153 -25 -23 -30 -33 -25
-56 4 -19 1 -32 -10 -41 -13 -10 -135 -205 -172 -274 -17 -32 -33 -98 -53
-226 -11 -63 -24 -124 -29 -136 -5 -12 -12 -48 -16 -80 -4 -32 -21 -87 -37
-121 -48 -103 -75 -194 -70 -240 3 -32 -1 -49 -18 -73 -25 -35 -39 -126 -41
-274 -1 -95 -21 -160 -60 -202 -10 -11 -46 -33 -79 -49 -38 -18 -60 -35 -60
-46 0 -9 -30 -49 -68 -88 -51 -54 -73 -71 -95 -71 -24 0 -27 -4 -27 -31 0 -17
-5 -39 -10 -49 -8 -16 -4 -23 23 -44 18 -14 41 -29 52 -33 11 -5 45 -23 76
-41 l56 -32 -9 -46 c-13 -60 -2 -71 86 -83 65 -9 112 -34 100 -52 -10 -18 23
-19 66 -4 25 9 57 29 72 45 26 29 29 30 90 24 116 -11 135 -20 166 -73 16 -31
40 -56 62 -67 19 -10 67 -38 107 -63 55 -33 79 -42 100 -38 23 5 34 -1 63 -32
38 -40 111 -100 145 -116 36 -18 49 -63 46 -154 -1 -57 -7 -88 -17 -98 -8 -8
-14 -25 -14 -38 0 -13 -11 -56 -25 -97 -26 -76 -44 -98 -150 -182 -83 -66
-136 -119 -155 -157 -12 -23 -43 -51 -84 -79 -36 -23 -66 -49 -66 -57 0 -10
-6 -12 -20 -8 -20 6 -58 -9 -75 -32 -11 -14 -44 -34 -148 -88 -37 -20 -70 -42
-74 -51 -7 -20 36 -102 69 -132 23 -20 26 -26 16 -42 -7 -11 -39 -31 -73 -46
-42 -19 -81 -48 -127 -96 -37 -38 -76 -68 -86 -68 -11 0 -52 -16 -91 -37 -75
-38 -77 -41 -71 -113 3 -47 25 -87 52 -96 13 -4 39 -17 58 -30 19 -13 44 -24
55 -24 11 0 35 -13 53 -30 18 -16 41 -30 51 -30 24 0 99 -74 134 -133 16 -26
35 -71 43 -100 8 -33 24 -62 42 -78 28 -25 32 -26 138 -22 112 3 214 18 214
32 0 4 11 13 25 19 31 14 87 123 83 160 -3 24 -7 27 -39 24 -33 -2 -37 0 -45
30 -10 32 -11 33 -66 33 -32 0 -62 5 -69 12 -7 7 -24 13 -38 13 -13 0 -33 7
-42 16 -10 9 -29 17 -41 18 -28 1 -60 64 -90 176 l-20 76 21 47 c23 50 71 85
148 108 l42 12 58 -59 c61 -63 106 -84 176 -84 59 0 84 35 89 129 6 107 18
123 118 172 47 22 118 67 157 100 40 32 77 59 81 59 5 0 39 23 75 50 36 28 70
50 75 50 5 0 15 7 22 16 8 8 28 21 46 29 41 17 131 105 127 125 -2 8 7 20 19
25 12 6 33 26 45 45 31 49 89 121 151 188 28 31 52 62 52 69 0 6 8 14 18 17
17 6 42 49 42 72 0 7 -10 15 -22 17 -13 2 3 3 35 2 64 -2 78 -10 83 -52 2 -15
13 -55 24 -88 12 -35 23 -100 27 -155 6 -105 22 -147 78 -209 25 -27 35 -48
35 -71 0 -27 2 -30 14 -21 24 20 36 -18 30 -90 -5 -58 -2 -73 36 -169 36 -90
45 -127 61 -260 10 -85 26 -170 34 -188 20 -45 123 -96 175 -87 45 8 140 35
162 46 13 6 20 4 27 -10 6 -10 31 -43 56 -72 53 -62 80 -129 90 -223 9 -84 43
-131 103 -141 42 -7 162 33 197 65 50 46 103 50 206 15 91 -32 204 -45 239
-29 120 55 149 80 165 144 5 19 0 31 -19 49 -22 21 -25 30 -20 63 5 31 3 42
-12 53 -27 21 -46 18 -89 -10 -34 -24 -38 -25 -50 -9 -10 14 -21 16 -59 11
-25 -4 -57 -14 -71 -23 -23 -15 -27 -15 -50 0 -23 15 -28 15 -85 -9 l-60 -25
-48 24 c-27 13 -54 32 -61 40 -8 9 -19 16 -25 16 -20 0 -122 97 -155 147 -35
53 -39 73 -13 66 41 -10 128 97 119 146 -9 40 -56 181 -77 226 -10 22 -21 64
-24 94 -10 76 -26 109 -80 163 -25 26 -46 55 -46 66 0 29 -52 101 -129 176
-95 93 -106 124 -115 331 l-7 160 48 13 c57 16 125 50 136 69 4 7 14 13 22 13
7 0 28 14 45 32 27 27 35 30 51 20 47 -30 110 6 184 105 6 7 34 15 64 18 46 5
58 2 77 -16 28 -26 41 -65 48 -142 3 -31 8 -62 11 -67 9 -14 36 -1 81 41 23
20 56 45 73 53 27 15 31 21 31 59 -1 23 -7 58 -14 78 -15 44 -5 69 28 69 12 0
35 14 51 30 25 26 34 30 60 24 70 -16 107 -6 153 42 38 39 48 44 80 43 20 -2
47 4 60 12 58 36 33 100 -87 223 -49 51 -101 115 -117 146 -15 30 -35 64 -44
75 -30 37 -70 169 -70 233 0 34 5 64 10 67 13 8 13 61 0 84 -5 10 -12 49 -16
87 -5 53 -12 74 -29 90 -25 23 -42 110 -28 141 16 34 7 218 -14 273 -3 8 -7
40 -8 70 -1 40 -11 73 -33 118 -18 35 -32 75 -32 90 0 37 -25 114 -46 148
l-18 26 65 -7 c35 -3 72 -9 81 -11 11 -3 28 6 44 23 14 15 33 28 42 28 32 1
92 17 98 26 3 5 16 9 29 9 13 0 37 11 53 25 40 34 80 40 126 21 21 -9 42 -16
46 -16 20 0 44 108 45 198 l0 93 30 -3 c24 -2 31 -8 35 -33 7 -42 54 -70 159
-94 68 -15 97 -18 124 -10 19 5 50 8 69 5 52 -6 77 9 98 60 16 36 18 50 9 66
-9 18 -8 24 7 35 10 7 24 13 31 13 21 0 45 46 38 71 -4 13 -70 84 -145 160
-170 168 -176 170 -280 97 -61 -43 -117 -69 -212 -98 -24 -7 -29 -4 -59 41
-57 83 -106 89 -334 43 -38 -8 -79 -15 -90 -15 -11 0 -40 -7 -64 -15 -25 -8
-72 -14 -105 -13 -34 1 -92 -6 -130 -15 -76 -19 -196 -14 -196 8 0 6 -10 16
-22 21 -16 7 -29 29 -43 71 -26 79 -39 94 -83 94 -36 0 -72 30 -139 118 -14
17 -30 32 -37 32 -6 0 -24 18 -39 39 -16 21 -48 48 -71 59 -23 12 -60 39 -81
61 -23 23 -50 41 -62 41 -14 0 -23 6 -23 16 0 20 -78 54 -155 68 -43 8 -62 17
-70 31 -5 11 -19 34 -31 50 -12 17 -24 42 -28 57 -3 15 -23 39 -44 54 -20 16
-41 33 -47 38 -25 27 -97 69 -139 81 -26 8 -56 21 -68 30 -23 15 -50 20 -60
10z m62 -80 c13 -14 30 -23 37 -21 7 3 13 1 13 -5 0 -7 10 -9 24 -5 27 7 78
-12 70 -25 -3 -5 -24 -6 -47 -2 -38 6 -41 5 -28 -10 7 -10 20 -17 27 -17 8 0
23 -9 34 -20 22 -22 40 -19 40 6 0 21 18 17 31 -8 15 -28 30 -39 47 -33 7 2
12 -3 12 -14 0 -29 -11 -31 -41 -8 -27 20 -30 20 -46 4 -15 -15 -15 -17 10
-26 15 -6 27 -17 27 -26 0 -17 16 -20 26 -4 10 16 27 -6 29 -36 0 -14 -7 -33
-17 -42 -22 -20 -23 -43 -3 -43 22 0 18 -31 -5 -37 -15 -4 -20 -14 -20 -39 0
-23 -5 -34 -14 -34 -21 0 -25 -22 -9 -47 15 -23 44 -26 78 -6 16 9 17 14 6 26
-11 13 -6 20 28 43 23 15 41 31 41 36 0 5 8 11 18 15 9 3 29 14 43 24 34 24
100 15 130 -17 12 -13 28 -24 35 -24 6 0 19 -11 28 -25 9 -14 25 -25 35 -25
10 0 23 -11 29 -25 6 -14 17 -25 24 -25 20 -1 -23 -30 -43 -30 -9 0 -40 -15
-68 -34 -32 -22 -69 -37 -99 -41 -105 -14 -117 -19 -120 -49 -2 -16 -1 -44 3
-63 5 -29 9 -33 38 -33 35 0 98 37 162 94 22 20 60 50 85 69 l45 33 35 -18
c45 -22 54 -22 46 0 -4 10 4 6 18 -10 14 -16 30 -28 36 -28 15 0 99 -91 100
-107 0 -7 -3 -12 -7 -11 -14 5 -55 -30 -49 -40 12 -19 56 -20 80 -1 13 11 26
19 29 19 2 0 7 -23 11 -50 4 -28 9 -57 12 -65 5 -12 1 -12 -25 -2 -23 9 -41 8
-73 -1 -165 -48 -231 -57 -393 -54 -337 7 -430 6 -463 -5 -29 -11 -33 -10 -30
5 4 29 -11 43 -33 32 -11 -6 -25 -8 -31 -4 -6 4 -8 3 -5 -3 4 -6 0 -17 -9 -24
-27 -22 -33 -52 -17 -82 11 -22 20 -28 41 -25 23 3 27 7 24 31 -1 15 1 27 6
27 10 0 42 -76 42 -98 0 -19 86 -69 143 -83 62 -15 153 -55 188 -83 70 -55 99
-74 161 -102 42 -18 67 -13 75 14 5 22 186 172 206 172 8 0 20 -7 27 -15 9
-11 16 -13 24 -5 7 7 5 15 -6 26 -14 14 -14 19 -1 45 8 16 33 44 55 62 22 17
52 42 65 55 l25 23 -7 -33 c-4 -18 -16 -44 -26 -57 -10 -12 -21 -38 -25 -57
-3 -19 -15 -39 -25 -45 -11 -5 -19 -14 -19 -20 0 -5 -11 -27 -25 -47 -14 -20
-25 -45 -25 -55 0 -10 -7 -20 -15 -23 -8 -4 -13 -9 -10 -14 7 -11 -42 -53 -54
-45 -6 3 -14 -2 -18 -12 -3 -10 -12 -22 -20 -26 -7 -4 -13 -25 -13 -48 0 -27
-5 -42 -16 -46 -12 -4 -14 -14 -10 -35 4 -19 1 -35 -8 -44 -8 -7 -12 -23 -9
-34 3 -12 0 -20 -7 -20 -8 0 -9 -10 -5 -30 5 -24 3 -30 -10 -30 -12 0 -15 -6
-10 -19 5 -16 2 -18 -16 -14 -18 5 -21 3 -16 -10 4 -10 2 -17 -3 -17 -6 0 -10
-5 -10 -12 0 -16 -30 -48 -46 -48 -6 0 -24 20 -38 44 -14 24 -59 75 -101 114
-41 38 -75 75 -75 81 0 5 -11 27 -25 47 -14 21 -28 49 -32 63 -7 32 -39 68
-76 88 -16 8 -52 50 -81 96 -75 115 -83 121 -151 112 -50 -6 -60 -4 -111 26
-44 25 -61 30 -73 22 -12 -8 -25 -6 -50 10 -19 12 -55 24 -80 28 -149 22 -300
76 -316 112 -6 12 -18 21 -28 21 -10 -1 -19 7 -23 22 -4 14 -14 30 -23 37 -25
18 -61 85 -61 113 0 37 26 91 49 104 12 6 21 19 21 28 0 29 64 85 88 78 15 -5
24 -1 32 14 7 14 19 20 33 18 16 -2 23 3 25 19 5 33 48 39 72 11 11 -13 19
-31 20 -40 0 -24 12 -23 28 3 10 15 10 24 2 34 -9 11 -5 17 20 30 29 15 32 15
59 -5 16 -11 36 -20 45 -20 10 0 16 -9 16 -25 0 -20 5 -25 24 -25 14 0 27 4
31 10 3 5 14 1 25 -10 11 -11 34 -20 50 -20 23 0 30 -4 30 -20 0 -22 20 -26
38 -8 8 8 15 8 26 -1 11 -10 16 -9 24 5 8 15 15 16 53 6 24 -6 64 -13 89 -14
44 -3 44 -2 46 29 1 29 -2 34 -35 43 -20 6 -72 15 -116 20 -44 6 -97 14 -118
19 -33 8 -39 7 -45 -10 -7 -18 -8 -18 -38 3 -31 22 -64 86 -64 124 0 12 -7 37
-15 56 -13 32 -12 39 5 73 15 30 26 38 51 40 44 4 60 22 35 41 -11 8 -28 12
-38 8 -22 -7 -24 14 -2 23 9 3 14 13 11 25 -3 11 2 22 14 28 10 6 19 16 19 23
0 7 18 20 40 30 50 21 75 22 36 1 -22 -12 -25 -18 -15 -24 7 -5 17 -6 21 -3 5
2 15 -1 23 -7 21 -18 37 -3 24 21 -7 15 -7 24 2 35 16 19 22 18 49 -11z m461
-665 c-27 -23 -51 -26 -51 -6 0 15 19 23 55 25 19 0 18 -1 -4 -19z m-1359
-161 c4 -3 19 -21 33 -40 24 -32 58 -56 180 -127 28 -16 102 -46 165 -68 63
-21 119 -45 123 -51 4 -7 20 -13 35 -13 44 -1 139 -37 187 -71 49 -35 81 -36
151 -3 48 23 58 15 114 -81 31 -54 59 -88 90 -110 34 -24 46 -40 52 -69 20
-95 103 -210 223 -307 36 -29 65 -60 64 -68 -2 -23 24 -81 36 -81 10 0 65
-118 65 -139 0 -19 61 -196 80 -231 10 -19 35 -84 55 -145 28 -84 35 -120 31
-152 -7 -53 8 -134 35 -190 13 -27 21 -67 24 -117 3 -71 -1 -86 -19 -69 -11
11 -108 2 -137 -12 -15 -8 -29 -12 -31 -9 -3 2 -11 -9 -18 -26 -11 -26 -17
-30 -37 -25 -14 3 -33 -1 -46 -10 -14 -9 -45 -15 -87 -16 -36 0 -87 -4 -115
-9 -27 -4 -52 -6 -54 -4 -2 2 4 19 13 38 9 19 16 39 16 45 0 6 27 41 60 76 62
67 80 98 80 141 0 27 -15 32 -24 9 -3 -8 -16 -20 -30 -26 -13 -6 -36 -32 -50
-58 -14 -26 -34 -55 -46 -66 -20 -18 -20 -18 -20 38 0 54 -12 79 -30 61 -17
-17 -40 -128 -34 -162 5 -27 10 -33 25 -29 22 6 23 4 7 -39 -11 -30 -16 -34
-67 -41 -31 -4 -132 -8 -226 -8 -155 0 -182 3 -310 32 -78 17 -163 42 -190 54
-28 11 -79 31 -115 43 -83 29 -91 43 -83 158 6 105 2 123 -27 108 -11 -6 -20
-21 -20 -33 0 -44 -14 -49 -47 -14 -17 17 -36 42 -42 55 -7 12 -19 22 -28 22
-12 0 -14 -7 -10 -36 3 -20 13 -44 22 -53 11 -13 44 -99 45 -118 0 -2 -7 -3
-16 -3 -16 0 -71 35 -214 135 -36 25 -80 56 -97 68 -26 18 -33 29 -33 57 0 51
-16 100 -42 127 -32 34 -56 30 -64 -11 -3 -19 -3 -39 1 -45 3 -6 0 -11 -8 -11
-8 0 -36 23 -63 51 -27 28 -71 74 -99 102 -74 77 -80 92 -77 169 3 80 16 82
62 7 54 -88 73 -58 35 57 -14 43 -29 90 -33 104 -7 24 7 120 31 205 16 59 18
61 33 26 8 -20 20 -31 33 -31 25 0 45 35 36 64 -4 11 -10 53 -15 91 -5 39 -11
82 -15 97 -5 19 1 43 19 82 14 30 26 59 26 64 0 5 9 21 21 36 11 15 22 32 23
39 2 6 8 25 14 40 7 16 12 31 12 35 0 4 9 18 19 32 l19 24 13 -27 c7 -15 20
-27 31 -27 10 0 18 -6 18 -14 0 -7 7 -19 16 -26 13 -11 18 -10 35 7 l21 20
-21 39 c-16 30 -21 57 -21 121 0 46 4 83 8 83 13 0 59 74 72 117 18 54 22 59
32 34 13 -35 33 -19 36 30 2 33 11 52 35 77 21 21 33 28 36 20 2 -7 8 -16 13
-19z m3606 -211 c35 -28 34 -32 -15 -42 -17 -4 -34 -13 -37 -21 -3 -8 -13 -14
-23 -14 -10 1 -45 -1 -78 -3 -61 -4 -123 13 -90 26 9 3 41 3 73 0 43 -4 62 -2
77 10 19 15 19 17 2 30 -13 10 -16 21 -11 42 6 24 5 26 -12 20 -38 -16 -54
-18 -54 -8 0 6 -20 20 -45 31 -27 12 -45 26 -45 36 0 9 -6 15 -12 12 -14 -4
-15 -27 -4 -68 6 -22 4 -27 -16 -32 -17 -5 -20 -9 -11 -18 7 -7 10 -29 6 -60
-7 -58 -16 -52 135 -78 62 -10 119 -25 128 -31 16 -14 15 -31 -1 -32 -6 -1
-15 -8 -22 -17 -11 -14 -12 -13 -13 6 0 22 -32 48 -44 36 -3 -3 -6 -19 -6 -34
0 -15 -4 -31 -10 -34 -5 -3 -10 3 -10 14 0 21 -24 29 -35 12 -3 -6 -17 -6 -35
1 -17 5 -37 8 -45 4 -8 -3 -17 -1 -21 5 -3 5 -13 9 -22 8 -41 -5 -115 59 -120
102 -4 39 -7 53 -20 77 -11 18 -16 20 -32 12 -11 -6 -20 -20 -20 -30 0 -13 -7
-20 -19 -20 -10 0 -24 -7 -31 -15 -11 -13 -14 -13 -27 0 -19 19 -43 19 -43 0
0 -8 -4 -15 -10 -15 -5 0 -10 5 -10 10 0 15 -60 12 -60 -2 -1 -20 -17 12 -24
48 -7 30 -6 31 24 26 22 -3 30 0 30 11 0 18 11 26 42 32 12 3 24 8 27 13 7 10
107 49 175 68 27 7 83 31 125 53 l76 39 90 -91 c50 -51 105 -104 123 -119z
m-728 192 c0 -6 -7 -25 -16 -41 -20 -40 -20 -131 0 -199 24 -78 36 -199 19
-193 -7 3 -13 13 -13 23 0 11 -4 21 -9 25 -17 10 -33 -36 -36 -105 -1 -38 -6
-73 -9 -79 -12 -19 -44 -12 -64 14 -23 29 -52 33 -52 8 -1 -45 -35 -57 -72
-26 -11 10 -27 13 -47 8 -23 -5 -37 -1 -57 14 -15 12 -34 21 -44 21 -9 0 -36
14 -58 30 -23 17 -51 30 -62 30 -10 0 -24 10 -30 23 -7 12 -36 45 -66 72 -51
47 -55 54 -70 129 -19 92 -13 104 40 85 31 -11 38 -11 52 3 15 14 15 18 0 41
l-17 24 42 7 c31 5 46 3 59 -9 9 -8 22 -15 28 -15 7 0 12 -7 12 -15 0 -8 9
-15 20 -15 10 0 31 -5 45 -12 40 -18 53 3 26 41 -21 30 -21 30 -2 40 30 16 47
13 63 -11 8 -12 25 -22 39 -23 13 -2 38 -8 56 -16 41 -17 51 -7 34 34 -26 64
-30 61 104 85 71 13 85 13 85 2z m-834 -61 c-4 -22 -1 -31 14 -39 16 -9 50
-58 50 -73 0 -2 -11 -2 -25 1 -15 2 -25 0 -25 -7 0 -6 -12 -16 -27 -22 -25 -9
-26 -11 -10 -20 9 -6 44 -11 77 -11 53 -1 60 -3 60 -21 0 -11 12 -46 27 -79
23 -51 25 -63 15 -94 -12 -40 0 -88 21 -82 6 3 22 19 33 36 20 29 23 30 37 14
8 -9 22 -34 30 -54 9 -21 20 -38 25 -38 6 0 13 -15 16 -34 8 -41 48 -117 88
-166 28 -34 37 -70 18 -70 -6 0 -10 -27 -10 -60 0 -39 -6 -70 -16 -85 -30 -46
7 -75 48 -38 18 16 20 16 38 -3 25 -25 35 -100 15 -108 -11 -4 -15 -22 -15
-70 0 -36 4 -68 10 -71 6 -4 -3 -30 -20 -66 -29 -56 -32 -95 -7 -70 19 19 56
12 73 -14 13 -20 14 -30 4 -61 -10 -28 -10 -46 -1 -76 7 -21 9 -49 6 -61 -14
-48 -37 -87 -57 -98 -12 -6 -57 -42 -101 -80 -44 -38 -83 -69 -88 -69 -14 0
-11 34 7 86 10 31 12 50 6 56 -17 17 -30 0 -48 -57 -17 -52 -34 -73 -34 -40 0
17 -56 49 -70 40 -15 -9 -12 -21 13 -52 13 -15 27 -44 30 -64 l5 -36 -81 -46
c-92 -52 -282 -117 -340 -117 l-38 0 4 78 c2 46 12 99 25 130 24 61 20 66 -55
67 -38 0 -43 3 -43 23 0 33 18 62 34 56 18 -7 39 25 71 105 19 50 22 67 13 86
-25 56 -57 30 -85 -68 -8 -32 -18 -56 -20 -53 -2 2 -6 25 -9 52 -2 26 -11 55
-19 64 -8 9 -15 27 -15 41 0 13 -4 30 -9 38 -6 9 -2 20 10 32 25 25 36 88 18
100 -25 17 -64 6 -67 -19 -2 -12 -7 -20 -12 -17 -4 3 -6 22 -3 43 3 23 -1 53
-11 76 -9 21 -16 48 -16 61 0 12 -9 30 -20 40 -16 15 -19 26 -13 59 3 23 14
57 23 76 15 30 27 66 47 140 3 8 8 49 11 90 4 46 14 85 25 100 9 13 17 31 17
40 0 8 30 42 66 75 52 48 68 68 74 100 5 22 25 83 45 135 20 52 42 115 48 140
8 31 12 38 15 23 2 -11 -4 -47 -12 -78 -8 -31 -12 -63 -9 -71 11 -29 53 -7 53
28 0 10 9 45 20 78 21 62 19 85 -10 100 -20 11 -16 55 8 82 23 27 56 5 48 -33z
m-222 -42 c-7 -19 -20 -22 -29 -7 -9 15 16 43 27 32 5 -5 6 -16 2 -25z m-71
-6 c6 -25 -12 -60 -40 -79 -22 -14 -23 -13 -23 22 0 20 4 36 9 36 5 0 11 9 14
20 7 25 33 26 40 1z m402 -2 c11 -17 -1 -21 -15 -4 -8 9 -8 15 -2 15 6 0 14
-5 17 -11z m-1017 -8 c17 -11 31 -48 25 -69 -11 -42 -146 -21 -164 26 -8 21
-7 29 7 39 18 13 114 16 132 4z m216 -32 c33 -31 6 -49 -75 -49 -74 0 -73 0
-84 47 l-6 32 73 -6 c51 -4 79 -11 92 -24z m306 -40 c0 -19 -12 -42 -34 -67
-19 -20 -37 -35 -39 -32 -3 3 -6 38 -8 79 -4 73 -3 75 21 82 32 8 60 -21 60
-62z m-134 29 c19 -36 16 -159 -4 -166 -7 -2 -12 -12 -12 -21 0 -10 -11 -28
-24 -40 -22 -20 -25 -21 -40 -6 -11 12 -16 35 -16 79 l0 63 41 12 c50 15 46
35 -7 39 -41 3 -64 23 -64 54 0 15 9 18 55 18 51 0 56 -2 71 -32z m-150 -102
c3 -13 4 -37 2 -53 l-3 -29 -85 40 -85 40 48 7 c27 4 52 10 55 13 3 3 18 6 33
6 22 0 30 -6 35 -24z m-1961 -1609 c50 -45 110 -94 135 -109 71 -42 130 -109
150 -169 13 -40 22 -54 36 -54 13 0 20 9 24 28 l5 28 34 -26 c19 -14 40 -25
45 -25 6 0 34 -16 61 -36 28 -20 97 -58 155 -86 134 -63 136 -64 132 -78 -5
-21 38 -102 51 -97 7 2 13 23 15 46 3 39 5 42 25 36 109 -36 368 -78 465 -76
62 2 64 1 109 -44 26 -25 52 -45 60 -45 20 0 15 41 -8 67 -28 29 -25 30 126
43 66 6 137 13 157 16 35 6 39 4 59 -30 11 -20 27 -36 35 -36 16 0 18 33 4 61
-10 18 -7 19 72 19 46 0 101 5 123 11 71 19 95 22 95 11 0 -11 -4 -16 -71 -78
-63 -59 -79 -78 -84 -105 -3 -13 -14 -31 -24 -39 -17 -13 -20 -31 -24 -125 -5
-106 -4 -112 24 -167 35 -70 36 -78 4 -78 -51 0 -101 36 -134 97 -17 31 -31
62 -31 69 0 17 -61 114 -71 114 -20 0 -29 -39 -15 -72 10 -24 12 -49 5 -93 -5
-39 -4 -64 3 -72 17 -21 1 -43 -32 -43 -17 0 -40 -4 -50 -10 -27 -14 -53 -2
-46 22 2 11 -5 39 -17 61 -17 32 -22 59 -22 112 0 68 -1 70 -26 73 -25 3 -26
0 -33 -55 -12 -101 -14 -105 -45 -89 -22 12 -33 12 -65 1 -70 -24 -89 0 -115
150 -19 108 -80 112 -67 5 2 -19 7 -58 11 -87 8 -51 7 -52 -31 -87 -50 -46
-66 -51 -120 -36 -36 10 -44 17 -44 36 0 12 -5 26 -11 30 -20 12 -47 88 -55
151 -8 75 -24 93 -53 64 -15 -15 -21 -34 -21 -63 0 -51 -4 -57 -51 -86 -45
-27 -49 -27 -49 1 0 13 -6 29 -12 35 -12 12 -31 86 -44 172 -4 25 -20 69 -37
99 -18 33 -32 75 -36 109 -7 62 -25 78 -41 36 -8 -21 -7 -41 6 -83 10 -31 23
-63 30 -71 35 -43 60 -153 38 -171 -8 -6 -14 -16 -14 -22 0 -13 -31 -36 -50
-37 -8 0 -22 13 -31 29 -16 27 -15 32 2 82 20 58 24 106 10 128 -13 20 -41
-26 -41 -67 0 -25 -5 -35 -19 -39 -21 -5 -81 -92 -81 -117 0 -21 -15 -20 -68
4 -50 23 -60 41 -38 71 11 16 14 36 10 68 -9 72 -10 74 -38 56 -17 -11 -26
-29 -31 -60 -3 -25 -10 -47 -15 -50 -4 -3 -28 17 -52 44 -54 61 -66 67 -163
80 -44 6 -84 16 -90 22 -5 5 -10 44 -11 85 -1 41 -4 77 -7 80 -3 3 -19 3 -36
-1 -24 -5 -31 -12 -31 -30 0 -13 5 -27 11 -30 12 -8 4 -74 -16 -122 -19 -45
-47 -58 -84 -38 -17 8 -40 15 -52 15 -17 0 -19 3 -10 14 20 24 51 119 51 156
0 43 21 124 43 167 22 42 23 133 2 133 -8 0 -15 -7 -15 -15 0 -9 -7 -18 -16
-22 -20 -7 -30 -34 -55 -152 -12 -53 -27 -103 -34 -111 -7 -8 -18 -32 -24 -52
-14 -44 -31 -59 -31 -28 0 11 -7 31 -15 44 -9 13 -18 47 -22 75 l-6 52 59 60
c53 54 58 63 55 97 -3 32 -14 51 -31 52 -3 0 -17 -26 -31 -57 -32 -71 -66
-113 -126 -153 -51 -35 -76 -35 -81 -3 -2 16 5 26 27 38 50 26 175 140 196
179 11 20 30 39 43 43 39 9 97 86 123 162 13 39 26 71 29 71 3 0 46 -37 95
-83z m3118 -169 c3 -29 10 -66 16 -82 10 -24 14 -26 27 -15 8 7 14 22 13 33 0
12 -1 43 0 70 1 46 2 48 16 30 8 -10 15 -27 15 -37 0 -21 24 -49 34 -40 3 3 9
-3 12 -13 10 -27 94 -165 116 -190 10 -11 18 -25 18 -32 0 -6 36 -48 80 -94
44 -46 80 -88 80 -94 0 -5 -10 -20 -21 -33 -17 -18 -29 -22 -62 -18 -46 5 -73
33 -83 87 -3 19 -20 50 -38 68 -24 26 -28 35 -17 41 10 7 4 19 -29 55 -57 62
-74 46 -27 -26 31 -49 33 -57 22 -78 -9 -16 -10 -32 -4 -48 13 -33 11 -90 -3
-98 -6 -4 -14 -2 -16 4 -7 21 -22 2 -22 -29 0 -16 -5 -29 -11 -29 -6 0 -8 -7
-5 -16 4 -12 2 -15 -9 -10 -14 5 -21 -16 -16 -46 0 -5 -4 -8 -10 -8 -6 0 -28
-14 -50 -30 l-38 -31 -17 28 c-9 15 -26 41 -36 56 -11 16 -17 31 -13 35 3 4
11 0 16 -8 8 -11 9 -8 3 10 -3 14 -10 30 -14 35 -4 6 -11 42 -15 82 -8 80 -23
110 -50 100 -15 -6 -16 -15 -11 -61 7 -49 5 -55 -13 -61 -31 -9 -26 -31 13
-54 19 -12 37 -28 40 -36 8 -21 -2 -19 -41 11 -19 14 -40 27 -46 28 -7 2 -19
5 -27 8 -8 3 -51 16 -95 28 -44 12 -99 31 -122 41 -23 11 -46 19 -50 19 -5 0
-33 15 -63 34 -109 68 -148 110 -113 122 24 9 104 43 126 55 10 6 32 7 48 4
22 -5 29 -3 29 9 0 20 33 42 93 62 45 15 49 15 61 -2 21 -27 46 -11 46 30 0
32 5 39 57 72 76 49 84 51 81 24 -2 -13 5 -27 15 -34 23 -15 37 6 37 56 0 30
5 40 28 52 15 8 30 15 33 16 3 0 9 -24 12 -52z m-875 -458 c13 -16 20 -30 18
-30 -8 0 -46 43 -46 52 0 13 5 9 28 -22z m75 -53 c17 -11 16 -18 -6 -107 -14
-52 -27 -124 -31 -158 -3 -35 -8 -68 -11 -72 -7 -12 -67 29 -116 80 -43 45
-48 60 -19 60 11 0 31 16 47 37 15 21 50 59 78 85 48 46 49 47 31 67 -15 17
-16 21 -4 21 8 0 22 -6 31 -13z m107 -22 c17 -9 30 -20 30 -25 0 -6 6 -10 13
-10 7 0 38 -28 69 -62 54 -61 58 -64 156 -93 78 -23 98 -33 90 -42 -14 -17
-40 -16 -64 2 -25 19 -64 19 -64 1 0 -8 5 -18 10 -21 15 -9 12 -68 -4 -90 -24
-33 -56 -7 -111 89 -28 48 -72 115 -98 149 -84 108 -92 135 -27 102z m-1486
-320 c34 -44 117 -92 173 -101 52 -8 173 31 181 58 4 16 6 16 34 2 29 -15 66
-15 113 1 21 6 23 5 111 -91 12 -12 40 -28 62 -35 35 -10 50 -9 96 5 30 10 60
24 66 31 10 12 16 12 36 -3 13 -9 24 -23 24 -29 0 -12 -7 -15 -55 -17 -14 -1
-21 -9 -23 -28 -2 -14 -10 -32 -18 -39 -12 -10 -13 -9 -9 4 9 23 -11 30 -30
10 -10 -9 -25 -17 -35 -18 -10 -1 -25 -9 -34 -17 -14 -15 -65 -24 -179 -32
-66 -4 -75 -38 -14 -55 l32 -8 -27 -8 c-32 -8 -35 -17 -12 -40 15 -14 15 -18
0 -40 -9 -13 -16 -31 -16 -40 0 -8 -12 -33 -26 -55 -15 -22 -24 -46 -21 -54 3
-7 -7 -28 -22 -47 -25 -29 -34 -33 -89 -37 l-62 -4 0 -39 c0 -30 5 -42 25 -55
31 -20 32 -42 2 -53 -13 -5 -29 -16 -36 -25 -7 -9 -22 -16 -32 -16 -11 0 -19
-6 -19 -14 0 -20 -35 -30 -58 -17 -11 6 -23 26 -26 45 -6 32 -30 54 -40 37 -3
-4 -6 -42 -7 -85 -1 -65 -5 -79 -23 -91 -29 -21 -56 -19 -56 4 0 24 -25 45
-45 37 -10 -3 -15 -19 -15 -42 0 -36 -33 -104 -51 -104 -5 0 -9 -6 -9 -13 0
-8 -8 -21 -17 -29 -31 -26 -153 -47 -153 -27 0 4 -8 15 -17 24 -14 15 -15 23
-5 59 12 47 5 60 -31 51 -21 -6 -26 -14 -32 -51 -3 -25 -3 -68 0 -97 4 -30 1
-71 -5 -97 -7 -25 -14 -64 -17 -87 -3 -24 -9 -43 -13 -43 -4 0 -15 16 -24 35
-32 66 -186 155 -271 155 -51 0 -62 5 -180 73 -69 40 -81 57 -40 57 14 0 34 9
45 20 11 11 39 27 62 35 41 14 44 13 68 -10 14 -14 40 -30 59 -36 49 -17 57
-3 44 73 -5 35 -7 73 -2 85 11 30 105 76 140 68 16 -4 36 -2 45 3 11 6 28 6
47 0 32 -12 77 3 77 25 0 19 -50 45 -98 50 -23 2 -43 7 -44 12 -4 17 48 75 92
102 25 15 57 41 72 56 25 26 29 27 50 13 20 -13 27 -13 56 -1 17 8 32 21 32
29 0 10 10 6 32 -15 18 -16 37 -28 43 -26 11 4 11 59 1 122 -6 30 -2 49 13 78
11 21 17 46 14 54 -4 9 1 19 10 24 8 5 19 24 23 42 3 17 20 45 35 61 31 32 36
46 17 46 -6 0 -9 2 -6 5 3 3 17 0 32 -6 14 -7 29 -9 32 -6 13 13 -26 56 -62
67 -32 11 -34 14 -21 27 20 20 4 58 -27 68 -17 6 -18 8 -4 12 18 5 31 30 22
44 -3 5 -1 9 4 9 5 0 22 -16 36 -35z m1151 -280 c-32 -14 -41 -13 -30 4 3 6
18 11 33 10 l27 -1 -30 -13z m137 -51 c10 -24 25 -44 33 -44 17 0 19 -18 6
-39 -6 -9 -11 -10 -15 -2 -12 18 -24 12 -34 -17 -9 -25 -6 -33 22 -63 18 -19
44 -60 59 -92 14 -32 36 -70 47 -84 25 -32 19 -41 -12 -19 -12 9 -36 16 -52
16 -17 0 -40 10 -53 22 -22 21 -23 21 -43 3 -28 -25 -22 -57 12 -66 15 -4 42
-18 60 -32 36 -27 138 -80 178 -92 40 -12 80 -45 80 -65 0 -10 24 -39 54 -64
56 -48 77 -96 55 -122 -13 -16 -55 -19 -64 -4 -11 17 -35 11 -35 -9 0 -28 36
-68 78 -87 33 -14 44 -28 74 -93 45 -96 55 -126 37 -116 -15 10 -49 15 -142
22 -56 4 -78 0 -137 -22 -78 -30 -172 -88 -211 -131 -15 -16 -42 -61 -61 -101
-30 -63 -35 -70 -51 -59 -9 7 -23 28 -31 47 -15 36 -40 228 -31 237 3 3 19 -4
35 -16 59 -44 73 -20 25 42 -19 26 -35 55 -35 65 0 10 -16 43 -36 72 -28 42
-79 155 -85 189 -5 26 2 32 19 16 13 -11 28 -14 50 -10 61 12 46 57 -33 96
-22 11 -59 39 -81 62 -37 37 -43 50 -54 114 -11 65 -10 75 4 91 12 14 15 29
10 58 -3 21 -1 58 6 82 9 35 15 42 30 38 25 -6 41 13 33 41 -4 15 4 36 23 63
36 53 63 72 81 58 9 -8 25 -7 59 5 26 9 58 13 72 9 23 -5 24 -4 20 25 -6 41
10 30 34 -24z m-300 -3 c-29 -19 -63 -31 -100 -35 -31 -4 -66 -9 -79 -12 -13
-4 -23 -2 -23 3 0 6 28 13 62 17 36 3 81 16 108 31 62 33 84 31 32 -4z m-1725
-928 l53 -5 -15 -28 c-11 -21 -19 -26 -39 -23 -18 4 -33 -3 -58 -29 -26 -25
-43 -33 -69 -33 -25 0 -33 -4 -30 -15 6 -27 1 -74 -13 -114 -9 -28 -11 -50 -4
-80 6 -27 6 -42 -1 -44 -17 -6 -13 -19 7 -24 10 -3 22 -22 29 -51 19 -68 60
-150 101 -197 58 -69 200 -123 237 -92 18 15 65 32 65 22 0 -5 -9 -12 -21 -15
-12 -4 -38 -22 -58 -40 -36 -33 -39 -34 -136 -37 -79 -2 -108 1 -137 15 -22
10 -35 23 -32 30 2 7 -4 21 -15 31 -11 10 -18 22 -15 27 9 15 -24 65 -50 77
-14 6 -35 31 -47 54 -12 24 -27 46 -33 50 -6 4 -11 15 -12 25 -3 55 -46 93
-82 74 -18 -9 -78 -16 -123 -13 -15 1 -34 14 -46 31 -19 25 -20 33 -11 70 7
26 15 40 23 37 22 -8 69 29 145 113 41 44 81 81 89 81 9 0 25 7 35 15 10 8 23
12 28 9 5 -3 29 14 52 38 24 23 50 42 59 40 8 -2 18 2 22 8 4 7 16 9 29 5 11
-4 45 -10 73 -12z m2343 -235 c110 -219 184 -291 410 -400 109 -53 160 -61
273 -46 59 8 81 7 92 -2 11 -9 15 -9 15 -1 0 6 12 11 26 11 29 0 29 -23 -1
-29 -18 -3 -30 -11 -65 -43 -25 -22 -101 -43 -109 -30 -3 6 -22 11 -41 13 -19
2 -47 11 -62 21 -22 15 -34 17 -67 9 -38 -8 -42 -7 -66 24 -30 40 -55 37 -91
-10 -18 -23 -31 -31 -44 -28 -15 4 -20 0 -20 -15 0 -24 -12 -33 -67 -54 -27
-10 -45 -13 -49 -7 -3 6 -18 7 -33 4 -35 -7 -60 17 -41 39 21 27 -1 137 -33
164 -9 8 -14 27 -13 53 2 33 -3 45 -26 64 -15 13 -24 26 -19 30 5 3 12 1 16
-5 3 -5 10 -10 16 -10 16 0 10 36 -12 64 -18 22 -26 25 -60 21 -39 -5 -39 -5
-39 30 0 22 -8 43 -24 60 -18 19 -24 36 -22 65 1 22 5 42 9 46 7 8 11 -9 7
-39 -1 -13 4 -18 17 -15 14 3 18 12 17 40 -1 32 2 37 30 46 17 5 32 10 33 11
1 1 21 -36 43 -81z m855 -348 c-3 -5 -13 -6 -23 -3 -10 2 -27 -6 -41 -21 -27
-29 -63 -38 -40 -10 28 34 123 65 104 34z m-157 -21 c3 -16 -69 -49 -107 -49
-19 0 -21 3 -12 14 16 19 93 57 106 53 6 -2 11 -10 13 -18z m-165 -13 c3 -8
-2 -17 -11 -21 -9 -3 -18 -1 -20 4 -2 6 -11 11 -20 11 -15 0 -15 2 -2 10 22
14 47 12 53 -4z m-2699 -25 c3 -5 -8 -14 -24 -21 -17 -7 -30 -16 -30 -21 0
-14 -26 -10 -39 5 -14 17 -4 25 43 37 44 10 44 10 50 0z"/>
<path d="M3213 6265 c-7 -21 4 -32 18 -18 13 13 42 6 33 -8 -3 -5 0 -9 5 -9 6
0 11 11 11 25 0 21 -5 25 -30 25 -18 0 -33 -6 -37 -15z"/>
<path d="M3377 6194 c-11 -12 3 -24 28 -24 13 0 29 -8 34 -17 10 -16 10 -16
11 3 0 11 -5 25 -12 32 -13 13 -50 16 -61 6z"/>
<path d="M3130 6133 c-29 -21 -12 -37 23 -21 15 7 27 16 27 19 0 15 -29 16
-50 2z"/>
<path d="M3379 6079 c-10 -20 -9 -21 10 -16 14 3 24 0 28 -9 5 -15 33 -20 33
-6 0 16 -32 52 -45 52 -8 0 -19 -10 -26 -21z"/>
<path d="M3228 6045 c-15 -33 -1 -46 21 -18 14 16 21 19 29 11 17 -17 27 -1
12 17 -19 23 -49 18 -62 -10z"/>
<path d="M3115 6021 c-6 -11 9 -23 19 -14 9 9 7 23 -3 23 -6 0 -12 -4 -16 -9z"/>
<path d="M3788 5972 c-29 -26 -68 -58 -85 -70 -33 -23 -42 -45 -23 -57 8 -5
44 7 120 40 87 37 114 71 90 114 -17 33 -45 25 -102 -27z"/>
<path d="M3390 5970 c0 -5 9 -10 19 -10 11 0 28 -3 38 -7 16 -6 16 -5 4 10
-14 18 -61 23 -61 7z"/>
<path d="M3063 5839 c-13 -4 -23 -14 -23 -22 0 -7 -10 -13 -21 -13 -22 1 -49
-28 -37 -39 3 -4 16 -1 28 5 18 10 26 8 45 -10 l23 -21 16 22 c9 14 13 32 9
48 -8 35 -14 40 -40 30z"/>
<path d="M2760 5815 c0 -8 7 -15 15 -15 7 0 18 -8 24 -17 13 -24 25 -10 17 22
-5 18 -13 25 -31 25 -16 0 -25 -6 -25 -15z"/>
<path d="M3581 5814 c8 -9 13 -26 11 -36 -3 -15 1 -19 20 -16 18 2 23 9 23 33
0 27 -4 30 -34 33 -32 3 -34 2 -20 -14z"/>
<path d="M4005 5800 c-16 -6 -17 -9 -5 -13 35 -13 54 -11 58 6 4 19 -18 22
-53 7z"/>
<path d="M3121 5786 c-7 -8 -11 -27 -9 -43 3 -26 6 -28 53 -29 28 0 66 -5 85
-11 102 -33 248 -58 278 -49 17 6 19 14 15 54 -3 26 -12 53 -21 59 -11 9 -49
12 -121 10 -58 -1 -127 2 -154 6 -45 8 -47 7 -57 -19 l-11 -28 -19 32 c-23 37
-23 37 -39 18z m352 -62 c9 -3 17 -12 17 -20 0 -8 -8 -14 -17 -13 -34 1 -203
36 -211 44 -7 7 179 -3 211 -11z"/>
<path d="M4127 5774 c-12 -13 -8 -24 10 -24 9 0 25 -8 36 -17 18 -17 19 -17
15 12 -2 24 -8 31 -28 33 -14 2 -29 0 -33 -4z"/>
<path d="M2645 5761 c-6 -10 25 -31 44 -31 17 0 13 27 -5 34 -22 8 -32 8 -39
-3z"/>
<path d="M2575 5719 c-10 -15 1 -23 20 -15 9 3 13 10 10 16 -8 13 -22 13 -30
-1z"/>
<path d="M4017 5712 c-7 -10 29 -53 37 -45 12 12 6 41 -10 47 -20 8 -22 8 -27
-2z"/>
<path d="M3042 5668 c-20 -20 -14 -26 23 -25 36 1 48 20 19 31 -22 8 -28 8
-42 -6z"/>
<path d="M3832 5658 c-19 -19 -14 -27 17 -26 22 1 27 5 24 19 -6 22 -24 24
-41 7z"/>
<path d="M2671 5651 c-8 -5 -11 -16 -8 -25 7 -18 23 -21 31 -7 3 5 15 7 26 4
22 -6 26 7 8 25 -14 14 -37 15 -57 3z"/>
<path d="M2831 5651 c-12 -8 -9 -11 12 -16 15 -4 26 -13 25 -20 -2 -8 2 -15 7
-17 6 -2 11 12 13 30 3 28 0 32 -20 32 -13 0 -30 -4 -37 -9z"/>
<path d="M3177 5654 c-15 -15 -6 -24 24 -24 20 0 29 4 27 13 -5 14 -40 21 -51
11z"/>
<path d="M2962 5613 c4 -21 33 -25 33 -3 0 8 -8 16 -18 18 -14 3 -18 -1 -15
-15z"/>
<path d="M3270 5595 c-18 -21 -10 -25 32 -19 26 5 35 11 31 20 -7 19 -47 18
-63 -1z"/>
<path d="M3637 5593 c-14 -13 -6 -24 13 -18 13 4 20 2 20 -6 0 -10 3 -10 11
-2 6 6 8 16 5 22 -8 12 -39 15 -49 4z"/>
<path d="M4110 5578 c-21 -23 -9 -41 13 -19 8 8 16 6 29 -6 26 -23 43 -4 22
25 -19 28 -38 28 -64 0z"/>
<path d="M3953 5574 c-15 -6 -18 -44 -4 -44 6 0 13 5 16 10 4 6 16 8 27 4 16
-5 19 -2 16 13 -3 18 -32 27 -55 17z"/>
<path d="M3176 5557 c-18 -13 -41 -101 -30 -118 19 -32 58 22 71 99 6 35 -9
43 -41 19z"/>
<path d="M3773 5564 c-25 -11 -12 -24 23 -24 24 0 34 4 32 13 -5 13 -35 19
-55 11z"/>
<path d="M2752 5548 c-19 -19 -14 -31 13 -26 18 4 26 0 31 -14 7 -24 30 -17
26 8 -8 41 -44 58 -70 32z"/>
<path d="M3025 5519 c-8 -13 -6 -15 23 -23 27 -9 30 9 3 24 -14 7 -22 7 -26
-1z"/>
<path d="M2895 5447 c-26 -19 -11 -41 18 -26 16 9 22 9 25 0 5 -15 32 -14 32
2 0 34 -42 47 -75 24z"/>
<path d="M3102 5374 c-27 -18 -20 -39 8 -24 29 15 37 12 44 -16 10 -39 30 -15
21 25 -8 36 -36 41 -73 15z"/>
<path d="M3453 5249 c-10 -10 -6 -15 14 -26 33 -17 35 -17 31 9 -3 26 -28 34
-45 17z"/>
<path d="M4055 5150 c-4 -7 2 -14 14 -17 12 -3 21 -9 21 -14 0 -5 7 -9 16 -9
10 0 14 7 12 23 -2 15 -11 23 -30 25 -14 2 -29 -2 -33 -8z"/>
<path d="M3573 5143 c-7 -2 -13 -16 -13 -29 0 -24 14 -32 25 -14 3 6 15 10 26
10 17 0 18 3 9 20 -11 20 -23 23 -47 13z"/>
<path d="M3680 5111 c0 -15 28 -33 40 -26 8 5 8 11 -1 21 -13 15 -39 19 -39 5z"/>
<path d="M3778 5002 c-16 -19 -12 -56 5 -48 7 3 20 9 30 12 22 8 22 31 -2 43
-14 8 -22 6 -33 -7z"/>
<path d="M3943 5003 c-33 -6 -28 -25 13 -45 32 -16 35 -17 41 -2 7 18 -7 47
-23 49 -5 1 -19 0 -31 -2z"/>
<path d="M3651 4991 c-19 -12 -4 -31 25 -31 19 0 25 5 22 17 -4 20 -27 27 -47
14z"/>
<path d="M3760 4905 c-11 -13 -9 -20 10 -40 29 -30 50 -32 50 -4 0 49 -35 75
-60 44z"/>
<path d="M3857 4874 c-15 -15 -6 -30 23 -41 17 -6 30 -18 30 -27 0 -26 19 -18
26 10 4 16 2 31 -7 39 -17 17 -62 29 -72 19z"/>
<path d="M3852 4738 c-19 -19 -14 -30 10 -26 13 2 24 11 26 21 4 20 -18 23
-36 5z"/>
<path d="M2600 5315 c-5 -14 -10 -38 -10 -53 0 -15 -5 -34 -10 -42 -9 -12 -16
-9 -43 23 -17 20 -40 37 -49 37 -20 0 -23 -11 -9 -25 6 -6 19 -32 31 -59 l20
-49 -141 -138 c-77 -77 -145 -139 -149 -139 -13 0 -80 -60 -80 -71 0 -5 -11
-27 -25 -48 -17 -28 -28 -67 -38 -139 -9 -70 -20 -107 -34 -126 -25 -31 -23
-40 27 -156 35 -81 40 -86 93 -115 65 -35 94 -60 113 -97 16 -31 77 -49 97
-29 15 15 36 14 53 -4 12 -11 36 -14 110 -11 51 2 97 0 100 -5 3 -5 16 -9 30
-9 13 0 32 -4 42 -9 37 -19 68 -30 97 -34 17 -3 46 -8 66 -12 32 -6 38 -4 44
14 8 26 23 26 55 1 14 -11 31 -20 38 -20 8 0 25 -9 39 -20 14 -11 33 -20 42
-20 9 0 27 -7 39 -16 13 -9 31 -13 45 -9 21 6 21 6 3 -9 -18 -14 -18 -16 -3
-16 10 0 25 9 34 20 12 14 30 20 59 20 50 0 59 10 68 73 8 56 27 61 74 22 17
-14 33 -25 38 -25 4 0 17 -9 29 -20 12 -12 39 -23 59 -27 31 -5 45 0 92 32 51
35 54 40 48 70 -4 24 -2 34 11 39 9 3 13 10 10 16 -3 5 -1 10 4 10 6 0 11 7
11 16 0 8 13 27 29 42 20 19 30 40 34 72 4 31 13 51 30 65 28 23 43 96 29 135
-8 21 -21 26 -113 42 -195 35 -169 37 -237 -25 -57 -52 -72 -60 -161 -80 -30
-7 -61 8 -61 30 0 32 -43 83 -70 83 -14 0 -41 4 -60 9 -50 14 -109 24 -150 26
-19 1 -50 5 -68 9 -28 7 -31 11 -20 24 11 14 10 15 -7 8 -11 -5 -40 -10 -65
-12 l-45 -3 55 15 c86 24 108 28 90 15 -33 -24 2 -8 86 37 98 53 153 71 229
75 42 2 51 6 62 27 7 14 10 39 7 56 -5 28 -3 32 21 38 76 19 69 204 -11 284
-46 46 -66 31 -30 -23 14 -21 26 -46 26 -55 0 -16 -27 -89 -36 -99 -2 -2 -17
8 -34 23 -17 14 -40 26 -51 26 -28 0 -23 -29 6 -40 18 -7 25 -17 25 -35 0 -15
4 -24 10 -20 6 3 10 -1 10 -9 0 -10 -6 -13 -15 -10 -11 4 -19 -3 -26 -25 -7
-21 -16 -30 -25 -27 -8 3 -14 2 -14 -2 0 -4 -20 -14 -45 -21 -25 -7 -45 -17
-45 -23 0 -19 -55 -58 -76 -53 -16 4 -23 -1 -28 -18 -6 -21 -7 -21 -21 -3 -18
23 -140 35 -132 12 4 -9 -5 -16 -26 -20 -18 -4 -39 -16 -47 -27 -16 -20 -16
-20 -60 5 -25 14 -61 41 -79 60 -19 20 -41 36 -48 36 -23 0 -14 -38 15 -59
l27 -21 -58 6 c-50 6 -57 5 -51 -9 3 -9 22 -21 43 -27 53 -15 112 -49 86 -50
-40 -1 -49 -14 -34 -49 13 -28 18 -31 59 -31 l45 0 -24 -19 c-16 -12 -22 -24
-18 -35 10 -25 32 -19 83 19 41 32 52 35 109 35 70 0 84 -9 61 -42 -11 -16
-13 -25 -4 -35 18 -22 47 -15 62 16 17 32 2 31 184 15 68 -5 72 -7 79 -32 3
-15 17 -51 30 -81 24 -51 52 -198 53 -268 0 -29 -5 -34 -57 -59 -32 -14 -62
-33 -66 -41 -7 -11 -14 -9 -39 12 -16 14 -34 23 -39 20 -5 -3 -18 -1 -29 5
-15 8 -20 21 -20 50 0 23 -5 40 -11 40 -7 0 -18 8 -24 17 -13 17 -14 17 -32 0
-11 -9 -27 -17 -36 -17 -9 0 -21 -9 -27 -21 -9 -16 -18 -19 -36 -15 -17 5 -24
2 -24 -8 0 -10 -10 -13 -37 -10 -21 2 -46 4 -55 4 -10 1 -20 5 -23 11 -4 5
-15 9 -25 9 -23 0 -62 40 -56 56 3 7 -9 32 -27 56 -27 37 -32 40 -36 23 -4
-14 -16 -21 -41 -23 -19 -1 -36 -7 -38 -12 -2 -5 -9 -7 -15 -4 -7 2 -29 -4
-50 -15 l-38 -19 -21 29 c-23 30 -54 37 -88 19 -13 -7 -21 -5 -31 7 -8 9 -13
19 -13 22 1 3 -2 16 -7 29 -5 13 -9 27 -9 32 0 5 -8 14 -17 19 -16 9 -16 12
-3 21 8 5 20 11 25 14 6 2 6 8 -1 15 -8 9 -18 9 -38 1 -23 -8 -32 -7 -55 12
-52 43 -74 131 -33 134 6 1 20 2 31 3 13 1 21 12 26 37 9 52 -2 55 -41 10
l-34 -39 0 29 c0 31 24 119 38 138 4 6 14 29 21 51 8 22 18 46 24 53 15 18 66
5 99 -25 32 -30 66 -26 48 6 -7 13 -7 22 0 26 6 4 8 28 5 58 -4 30 -1 58 5 67
9 13 13 12 28 -8 l18 -23 31 48 c18 26 54 73 82 103 28 30 51 56 51 58 0 9 56
62 65 62 26 0 84 53 104 94 25 54 26 66 6 66 -8 0 -21 -15 -29 -34 -8 -19 -23
-39 -35 -45 -18 -10 -20 -8 -23 31 -3 39 -6 43 -30 46 -22 3 -30 -2 -38 -23z
m530 -545 c0 -5 -5 -10 -11 -10 -5 0 -7 5 -4 10 3 6 8 10 11 10 2 0 4 -4 4
-10z m648 -328 c32 -18 27 -33 -11 -30 -39 2 -57 -7 -57 -31 0 -21 22 -71 33
-71 4 0 7 -7 7 -16 0 -14 -1 -14 -16 0 -17 18 -44 21 -44 7 0 -5 -9 -13 -20
-16 -21 -7 -27 -34 -11 -50 5 -6 5 -20 0 -32 -11 -30 -59 -31 -106 -2 -25 16
-37 19 -46 10 -13 -13 37 -71 62 -71 9 0 22 -9 29 -20 7 -11 19 -20 26 -20 20
0 31 -21 16 -30 -6 -4 -30 -3 -52 1 -21 5 -43 7 -49 4 -5 -4 -9 0 -9 8 0 8
-13 20 -30 26 -16 5 -30 16 -30 24 0 15 -30 29 -65 31 -15 1 -22 10 -27 41
-10 61 -13 72 -24 86 -6 8 -14 24 -16 36 -7 26 7 33 64 33 31 0 41 4 45 20 4
14 14 20 33 20 19 0 37 11 58 34 21 24 40 36 64 38 43 4 146 -14 176 -30z"/>
<path d="M3617 4409 c-27 -28 -35 -49 -18 -49 5 0 30 9 56 20 49 21 55 40 14
50 -18 5 -31 0 -52 -21z"/>
<path d="M3400 4334 c-10 -12 -8 -14 14 -14 28 0 35 14 12 23 -8 3 -20 -1 -26
-9z"/>
<path d="M3545 4319 c-10 -15 13 -29 48 -29 22 0 28 4 25 18 -4 20 -62 30 -73
11z"/>
<path d="M3410 4240 c0 -5 9 -10 20 -10 11 0 20 5 20 10 0 6 -9 10 -20 10 -11
0 -20 -4 -20 -10z"/>
<path d="M2792 5248 c-18 -18 -15 -41 4 -34 9 3 18 6 20 6 2 0 4 9 4 20 0 23
-10 26 -28 8z"/>
<path d="M2660 5121 c-5 -11 -10 -38 -10 -61 0 -37 2 -41 23 -38 19 3 22 10
25 61 2 46 0 57 -12 57 -8 0 -20 -9 -26 -19z"/>
<path d="M2507 4963 c-4 -3 -7 -24 -7 -45 0 -32 3 -39 18 -36 22 4 31 88 9 88
-7 0 -17 -3 -20 -7z"/>
<path d="M3020 4921 c0 -10 7 -21 15 -25 8 -3 15 -17 15 -31 0 -30 11 -32 34
-6 16 17 15 20 -9 50 -30 35 -55 41 -55 12z"/>
<path d="M2816 4862 c-6 -10 30 -72 42 -72 4 0 16 6 26 13 16 12 16 14 -4 40
-21 26 -53 36 -64 19z"/>
<path d="M3464 4846 c-18 -14 -18 -16 12 -43 17 -15 43 -45 58 -65 31 -43 56
-50 56 -15 0 21 -84 134 -101 136 -3 1 -14 -5 -25 -13z"/>
<path d="M2377 4703 c-4 -3 -7 -19 -7 -35 0 -20 5 -28 18 -28 26 0 40 18 34
46 -4 23 -30 33 -45 17z"/>
<path d="M3690 4630 c0 -22 43 -55 60 -45 15 9 13 18 -10 43 -26 27 -50 28
-50 2z"/>
<path d="M2344 4466 c-15 -12 -16 -17 -7 -27 10 -10 17 -9 33 6 32 29 10 47
-26 21z"/>
<path d="M2447 4444 c-18 -24 -23 -64 -8 -64 15 0 81 41 81 50 0 4 9 6 19 3
21 -5 61 12 61 27 0 15 -27 12 -44 -6 -14 -14 -17 -14 -22 0 -9 24 -66 17 -87
-10z"/>
<path d="M2967 4416 c-9 -7 -35 -16 -57 -20 -35 -5 -43 -12 -63 -54 -26 -51
-25 -72 3 -72 20 0 80 66 80 87 0 7 16 19 35 27 19 8 35 22 35 30 0 19 -9 20
-33 2z"/>
<path d="M3118 4306 c-45 -47 -46 -50 -34 -79 6 -17 17 -32 24 -35 16 -5 64
104 60 137 -4 25 -5 25 -50 -23z"/>
<path d="M2723 4314 c-9 -25 10 -36 35 -18 12 8 22 19 22 25 0 16 -50 10 -57
-7z"/>
<path d="M3937 4177 c-2 -7 3 -32 12 -57 12 -32 23 -46 39 -48 26 -4 26 -1 9
56 -16 53 -48 79 -60 49z"/>
<path d="M3970 4016 c0 -9 5 -16 10 -16 6 0 10 4 10 9 0 6 -4 13 -10 16 -5 3
-10 -1 -10 -9z"/>
<path d="M4000 3963 c0 -10 7 -27 15 -37 8 -11 15 -28 15 -37 0 -23 15 -32 28
-16 6 8 5 28 -5 60 -10 35 -18 47 -33 47 -13 0 -20 -7 -20 -17z"/>
<path d="M2965 3913 c-14 -21 -25 -46 -25 -55 0 -10 -8 -26 -18 -36 -12 -12
-16 -26 -12 -42 5 -23 9 -21 68 39 66 68 73 88 44 114 -25 23 -28 22 -57 -20z"/>
<path d="M3414 3835 c-7 -19 -14 -40 -14 -47 0 -12 39 -43 45 -36 1 2 5 29 9
61 5 48 4 57 -9 57 -9 0 -23 -16 -31 -35z"/>
<path d="M3190 3476 c0 -21 -21 -31 -31 -15 -7 11 -9 10 -9 -3 0 -10 5 -18 11
-18 7 0 8 -11 4 -29 -8 -37 8 -48 41 -26 21 14 25 23 22 58 -2 30 -8 43 -20
45 -11 2 -18 -3 -18 -12z"/>
<path d="M4762 5273 c3 -19 53 -42 65 -29 13 13 -13 41 -41 44 -22 3 -27 0
-24 -15z"/>
<path d="M5143 5283 c-21 -8 -14 -36 18 -71 24 -27 33 -31 44 -22 16 13 11 27
-27 71 -13 15 -29 24 -35 22z"/>
<path d="M4944 5266 c-3 -8 0 -25 7 -38 23 -43 52 -50 70 -16 10 19 8 25 -15
45 -31 26 -54 30 -62 9z"/>
<path d="M4500 4948 c-7 -24 -22 -54 -34 -68 -31 -34 -63 -92 -75 -136 -9 -31
-7 -39 13 -60 l22 -25 23 25 c16 17 23 38 25 72 2 35 12 64 36 101 37 60 47
125 18 131 -13 2 -20 -8 -28 -40z"/>
<path d="M4339 4927 c-30 -16 -41 -83 -14 -93 22 -9 41 14 49 58 8 43 -1 51
-35 35z"/>
<path d="M4566 4541 c-3 -4 -10 -29 -16 -56 -9 -42 -8 -54 10 -92 21 -46 40
-56 40 -23 0 12 9 39 19 60 19 39 19 40 0 64 -10 13 -19 29 -19 34 0 13 -28
24 -34 13z"/>
<path d="M4430 4295 c-30 -71 -25 -135 10 -135 14 0 23 17 39 69 23 75 26 101
12 101 -5 0 -16 3 -25 6 -12 4 -21 -6 -36 -41z"/>
<path d="M4428 3818 c-22 -75 -8 -218 21 -218 33 0 46 165 19 233 -15 38 -25
34 -40 -15z"/>
<path d="M1886 3458 c-13 -31 -31 -124 -28 -140 1 -4 4 -35 6 -68 2 -34 6 -64
9 -66 2 -3 15 0 29 5 l25 9 -1 143 c-1 105 -4 143 -14 147 -7 2 -18 -11 -26
-30z"/>
<path d="M2806 3047 c-15 -11 -16 -17 -5 -40 14 -31 21 -33 38 -13 12 14 5 66
-8 66 -4 0 -15 -6 -25 -13z"/>
<path d="M3436 3027 c6 -16 44 -40 52 -33 8 8 -29 46 -44 46 -7 0 -11 -6 -8
-13z"/>
<path d="M2990 2307 c-9 -7 -16 -23 -15 -37 0 -24 2 -25 59 -22 33 1 65 7 72
13 22 18 4 39 -31 39 -19 0 -37 5 -40 10 -8 13 -26 12 -45 -3z"/>
<path d="M2543 1888 c-65 -12 -76 -34 -27 -54 29 -12 46 -13 90 -4 29 6 56 15
58 19 6 8 -48 52 -61 50 -4 -1 -31 -6 -60 -11z"/>
<path d="M4161 1471 c-23 -15 -4 -57 36 -82 21 -13 40 -27 41 -31 5 -11 30
-10 37 2 8 13 -11 48 -48 88 -32 34 -43 37 -66 23z"/>
<path d="M4110 1344 c-35 -11 -51 -23 -72 -58 -32 -50 -35 -71 -12 -80 27 -11
34 -7 76 39 23 25 45 45 49 45 4 0 20 5 34 10 23 9 25 13 14 26 -23 28 -43 32
-89 18z"/>
<path d="M1942 1397 c-22 -10 -25 -28 -6 -34 5 -2 19 3 29 11 27 20 9 38 -23
23z"/>
<path d="M2012 1388 c6 -18 25 -20 31 -3 5 10 0 15 -14 15 -12 0 -19 -5 -17
-12z"/>
<path d="M1837 1336 c-7 -19 1 -26 30 -26 16 0 23 6 23 20 0 14 -7 20 -24 20
-13 0 -26 -6 -29 -14z"/>
<path d="M1696 1240 c-45 -50 -46 -77 -2 -119 l34 -33 28 19 c58 37 89 72 77
84 -9 9 -16 9 -28 -1 -24 -20 -69 6 -60 35 19 63 0 69 -49 15z"/>
<path d="M4320 1205 c0 -14 6 -25 13 -25 21 0 27 11 16 31 -14 27 -29 23 -29
-6z"/>
<path d="M4297 1134 c-10 -10 22 -64 38 -64 21 0 19 34 -3 53 -20 19 -26 20
-35 11z"/>
<path d="M4426 1014 c-3 -9 5 -26 21 -42 23 -23 28 -24 31 -10 3 18 -25 68
-38 68 -4 0 -11 -7 -14 -16z"/>
<path d="M4527 840 c-5 -19 -8 -20 -27 -10 -29 15 -46 7 -52 -25 -4 -18 1 -35
16 -52 18 -21 27 -24 53 -19 43 10 55 27 51 78 -3 47 -31 66 -41 28z"/>
</g>
</svg>
