<?xml version="1.0" encoding="UTF-8" standalone="no"?>
<svg
   xmlns:dc="http://purl.org/dc/elements/1.1/"
   xmlns:cc="http://creativecommons.org/ns#"
   xmlns:rdf="http://www.w3.org/1999/02/22-rdf-syntax-ns#"
   xmlns:svg="http://www.w3.org/2000/svg"
   xmlns="http://www.w3.org/2000/svg"
   xmlns:sodipodi="http://sodipodi.sourceforge.net/DTD/sodipodi-0.dtd"
   xmlns:inkscape="http://www.inkscape.org/namespaces/inkscape"
   id="Layer_1"
   data-name="Layer 1"
   viewBox="0 0 534.67999 69.68"
   version="1.1"
   sodipodi:docname="MoonleeLOGO-07.svg"
   width="534.67999"
   height="69.68"
   inkscape:version="1.0.1 (c497b03c, 2020-09-10)">
  <metadata
     id="metadata1038">
    <rdf:RDF>
      <cc:Work
         rdf:about="">
        <dc:format>image/svg+xml</dc:format>
        <dc:type
           rdf:resource="http://purl.org/dc/dcmitype/StillImage" />
        <dc:title>MoonleeLOGO</dc:title>
      </cc:Work>
    </rdf:RDF>
  </metadata>
  <sodipodi:namedview
     pagecolor="#ffffff"
     bordercolor="#666666"
     borderopacity="1"
     objecttolerance="10"
     gridtolerance="10"
     guidetolerance="10"
     inkscape:pageopacity="0"
     inkscape:pageshadow="2"
     inkscape:window-width="1920"
     inkscape:window-height="1035"
     id="namedview1036"
     showgrid="false"
     fit-margin-top="0"
     fit-margin-left="0"
     fit-margin-right="0"
     fit-margin-bottom="0"
     inkscape:zoom="1.1315104"
     inkscape:cx="267.34"
     inkscape:cy="34.82"
     inkscape:window-x="0"
     inkscape:window-y="23"
     inkscape:window-maximized="1"
     inkscape:current-layer="Layer_1" />
  <defs
     id="defs995">
    <style
       id="style993">.cls-1{fill:#fff;}</style>
  </defs>
  <title
     id="title997">MoonleeLOGO</title>
  <rect
     class="cls-1"
     x="3.6621093e-06"
     y="0.58000976"
     width="191.07001"
     height="68.440002"
     id="rect999" />
  <path
     d="M 191.07,69.03 H 0 V 0.58 H 191.07 Z M 5.7,63.32 h 179.64 v -57 H 5.7 Z"
     id="path1001" />
  <path
     d="m 169.4,35.22 c -6.15,0.71 -24.19,1.24 -38.47,0.23 a 25.8,25.8 0 0 0 -3,0.44 c 0,0 2.35,-0.58 2.64,-0.68 a 126.66,126.66 0 0 0 15.77,-6.69 l 4.79,-13.34 c -17.64,15.07 -47.76,22.34 -47.76,22.34 l 2.2,4.11 c 0,0 28.54,4.05 49.26,12.8 l 0.11,-0.23 c -6,-3.74 -26,-10.87 -30.54,-12.17 1.75,0.07 27.75,-2 45,-6.46 z"
     id="path1003" />
  <path
     d="m 21.66,35.22 c 6.16,0.71 24.19,1.24 38.48,0.23 a 25.8,25.8 0 0 1 3,0.44 c 0,0 -2.35,-0.58 -2.64,-0.68 A 125.85,125.85 0 0 1 44.65,28.52 L 39.85,15.18 C 57.5,30.25 87.61,37.52 87.61,37.52 l -2.19,4.11 c 0,0 -28.54,4.05 -49.26,12.8 L 36.04,54.2 c 6,-3.74 26,-10.87 30.55,-12.17 -1.75,0.07 -27.75,-2 -45,-6.46 z"
     id="path1005" />
  <path
     d="m 206.53,0.61 h 20.56 l 7.18,13.58 7.47,-13.58 h 19.6 V 31.14 H 245.8 v -15.1 l -8.21,15.1 h -7.42 L 222,16.04 v 15.1 h -15.47 z"
     id="path1007" />
  <path
     d="m 289.54,0 c 20.63,0 23.75,8.78 23.75,15.18 v 1.23 c 0,6.28 -3.16,15.34 -23.75,15.34 h -2.05 c -20.56,0 -23.76,-9.06 -23.76,-15.34 V 15.18 C 263.73,8.78 266.89,0 287.49,0 Z m -1.07,9.72 c -6.77,0 -8.7,3 -8.7,5.7 v 0.5 c 0,2.74 2.14,6 8.7,6 6.56,0 8.74,-3.2 8.74,-5.95 v -0.58 c 0,-2.63 -2.05,-5.67 -8.74,-5.67 z"
     id="path1009" />
  <path
     d="m 340.86,0 c 20.64,0 23.76,8.78 23.76,15.18 v 1.23 c 0,6.28 -3.16,15.34 -23.76,15.34 h -2 c -20.55,0 -23.75,-9.06 -23.75,-15.34 V 15.18 C 315.11,8.78 318.27,0 338.86,0 Z m -1.06,9.72 c -6.77,0 -8.7,3 -8.7,5.7 v 0.5 c 0,2.74 2.13,6 8.7,6 6.57,0 8.74,-3.2 8.74,-5.95 v -0.58 c 0,-2.63 -2.05,-5.67 -8.74,-5.67 z"
     id="path1011" />
  <path
     d="M 384.64,0.61 399,14.48 V 0.61 h 15.59 V 31.14 H 398.71 L 382.63,15.87 V 31.14 H 367.04 V 0.61 Z"
     id="path1013" />
  <path
     d="m 433.26,0.61 v 19.66 h 21.17 V 31.14 H 417.67 V 0.61 Z"
     id="path1015" />
  <path
     d="m 493.9,0.61 v 8.54 h -21.46 v 2.37 h 21.22 v 8.38 h -21.22 v 2.62 h 21.63 v 8.62 h -37 V 0.61 Z"
     id="path1017" />
  <path
     d="m 533.62,0.61 v 8.54 h -21.46 v 2.37 h 21.18 v 8.38 h -21.18 v 2.62 h 21.62 v 8.62 h -37 V 0.61 Z"
     id="path1019" />
  <path
     d="m 222.13,69.03 h -15.6 V 38.5 h 33.73 c 6.57,0 12,1.64 12,7.72 v 0.37 c 0,4.59 -4.27,6.48 -7.05,7.05 4.84,0.91 7.22,3.7 7.22,7.68 v 4.63 a 5.35,5.35 0 0 0 0.53,2.83 v 0.25 h -16 c -0.21,-0.21 -0.21,-0.49 -0.21,-0.94 v -3.7 c 0,-3.12 -1.52,-5.13 -5.91,-5.13 h -8.69 z m 11.36,-18.34 c 2.14,0 2.83,-0.82 2.83,-1.93 0,-1.11 -0.74,-1.93 -2.83,-1.93 h -11.36 v 3.86 z"
     id="path1021" />
  <path
     d="m 291.09,38.5 v 8.54 h -21.45 v 2.38 h 21.21 v 8.4 h -21.21 v 2.62 h 21.62 v 8.62 H 254.34 V 38.5 Z"
     id="path1023" />
  <path
     d="m 316.34,69.64 c -20.85,0 -23.76,-9 -23.76,-15.34 v -1.23 c 0,-6.4 2.75,-15.18 23.76,-15.18 h 1.43 c 20.23,0 22.82,8.45 22.82,13 v 0.62 h -15.8 c -0.16,-0.7 -0.9,-3.86 -8,-3.86 -7.1,0 -8.21,3 -8.21,5.7 v 0.5 c 0,2.66 1.36,6 8.21,6 7.22,0 7.84,-3.45 8,-4.19 h 15.8 v 1.07 c 0,4.31 -2.55,12.92 -22.82,12.92 z"
     id="path1025" />
  <path
     d="m 367.28,37.89 c 20.64,0 23.76,8.78 23.76,15.18 v 1.23 c 0,6.28 -3.16,15.34 -23.76,15.34 h -2.05 c -20.55,0 -23.75,-9.06 -23.75,-15.34 v -1.23 c 0,-6.4 3.16,-15.18 23.75,-15.18 z m -1.06,9.72 c -6.77,0 -8.7,3 -8.7,5.7 v 0.5 c 0,2.75 2.13,6 8.7,6 6.57,0 8.74,-3.2 8.74,-5.95 v -0.58 c 0,-2.63 -2.05,-5.67 -8.74,-5.67 z"
     id="path1027" />
  <path
     d="M 408.27,69.03 H 392.68 V 38.5 h 33.73 c 6.56,0 12,1.64 12,7.72 v 0.37 c 0,4.59 -4.27,6.48 -7.06,7.05 4.84,0.91 7.23,3.7 7.23,7.68 v 4.63 a 5.35,5.35 0 0 0 0.53,2.83 v 0.25 h -16 c -0.2,-0.21 -0.2,-0.49 -0.2,-0.94 v -3.7 c 0,-3.12 -1.52,-5.13 -5.91,-5.13 h -8.7 z m 11.37,-18.34 c 2.13,0 2.83,-0.82 2.83,-1.93 0,-1.11 -0.74,-1.93 -2.83,-1.93 h -11.37 v 3.86 z"
     id="path1029" />
  <path
     d="m 440.44,38.5 h 24.46 c 17.43,0 22.89,6.53 22.89,14.45 v 1.27 c 0,7.59 -4.15,14.81 -22.89,14.81 h -24.46 z m 15.59,21.09 h 6.24 c 8.82,0 9.4,-4 9.4,-5.82 v -0.25 c 0,-1.81 -0.7,-5.54 -9.4,-5.54 h -6.24 z"
     id="path1031" />
  <path
     d="m 488.28,58.98 v -0.33 h 18.26 c 0,1.31 0.53,3.28 4.84,3.28 3.65,0 4.68,-1 4.68,-2.13 v -0.13 c 0,-1 -0.41,-2 -5.67,-2.17 l -6.44,-0.21 C 491.4,56.88 488.77,52.41 488.77,47.61 v -0.37 c 0,-5.74 4.6,-9.27 19.37,-9.27 h 5.2 c 16.37,0 20.18,4.35 20.18,9.6 v 0.25 h -17.87 c -0.09,-1 -0.66,-2.47 -4.68,-2.47 -3.69,0 -4.43,0.58 -4.43,1.6 v 0.09 c 0,1.14 1.19,1.72 5.91,1.84 l 6.15,0.17 c 11.9,0.33 16.08,3.2 16.08,9.39 v 0.58 c 0,5.41 -3.48,10.66 -20.84,10.66 h -5.37 c -18.51,-0.04 -20.19,-6.76 -20.19,-10.7 z"
     id="path1033" />
</svg>
