<?xml version="1.0" encoding="utf-8"?>
<!-- Generator: Adobe Illustrator 16.0.0, SVG Export Plug-In . SVG Version: 6.00 Build 0)  -->
<!DOCTYPE svg PUBLIC "-//W3C//DTD SVG 1.1//EN" "http://www.w3.org/Graphics/SVG/1.1/DTD/svg11.dtd">
<svg version="1.1" id="Layer_1" xmlns="http://www.w3.org/2000/svg" xmlns:xlink="http://www.w3.org/1999/xlink" x="0px" y="0px"
	 width="25px" height="25px" viewBox="0 0 25 25" enable-background="new 0 0 25 25" xml:space="preserve">
<g>
	<path fill="#253237" d="M12.5,8.344c-2.292,0-4.157,1.864-4.157,4.156c0,2.292,1.865,4.156,4.157,4.156s4.158-1.863,4.158-4.156
		C16.658,10.208,14.792,8.344,12.5,8.344z M12.5,14.691c-1.204,0-2.191-0.986-2.191-2.191c0-1.205,0.987-2.192,2.191-2.192
		c1.206,0,2.19,0.987,2.19,2.192C14.69,13.705,13.706,14.691,12.5,14.691z"/>
	<path fill="#253237" d="M12.5,1.974C6.69,1.974,1.974,6.69,1.974,12.5c0,5.81,4.717,10.525,10.526,10.525
		S23.026,18.311,23.026,12.5C23.026,6.69,18.31,1.974,12.5,1.974z M12.5,17.48c-2.747,0-4.981-2.234-4.981-4.98
		c0-2.746,2.234-4.98,4.981-4.98s4.981,2.234,4.981,4.98C17.481,15.246,15.247,17.48,12.5,17.48z"/>
</g>
</svg>
