<?xml version="1.0" encoding="utf-8"?>
<!-- Generator: Adobe Illustrator 16.0.0, SVG Export Plug-In . SVG Version: 6.00 Build 0)  -->
<!DOCTYPE svg PUBLIC "-//W3C//DTD SVG 1.1//EN" "http://www.w3.org/Graphics/SVG/1.1/DTD/svg11.dtd">
<svg version="1.1" id="Layer_1" xmlns="http://www.w3.org/2000/svg" xmlns:xlink="http://www.w3.org/1999/xlink" x="0px" y="0px" viewBox="0 0 25 25" enable-background="new 0 0 25 25" xml:space="preserve">
<g>
	<g>
		<path fill="#253237" d="M12.5,1.996C6.702,1.996,1.996,6.702,1.996,12.5S6.702,23.004,12.5,23.004S23.004,18.298,23.004,12.5
			S18.298,1.996,12.5,1.996z M12.5,17.227c-2.615,0-4.728-2.111-4.728-4.727S9.885,7.773,12.5,7.773
			c2.616,0,4.727,2.111,4.727,4.727S15.116,17.227,12.5,17.227z"/>
	</g>
	<path fill="#253237" d="M12.5,11.449c-0.577,0-1.051,0.474-1.051,1.051s0.474,1.051,1.051,1.051s1.05-0.474,1.05-1.051
		S13.077,11.449,12.5,11.449z"/>
</g>
</svg>
